<?xml version="1.0" standalone="no"?>
<!DOCTYPE svg PUBLIC "-//W3C//DTD SVG 20010904//EN"
 "http://www.w3.org/TR/2001/REC-SVG-20010904/DTD/svg10.dtd">
<svg version="1.0" xmlns="http://www.w3.org/2000/svg"
 width="257.000000pt" height="196.000000pt" viewBox="0 0 257.000000 196.000000"
 preserveAspectRatio="xMidYMid meet">

<g transform="translate(0.000000,196.000000) scale(0.100000,-0.100000)"
fill="#000000" stroke="none">
<path d="M509 1781 c-44 -43 -49 -53 -49 -92 0 -43 3 -47 95 -134 530 -504
553 -528 543 -555 -17 -43 -12 -142 9 -191 43 -96 132 -159 225 -159 l48 0
-65 88 c-73 100 -86 128 -74 159 9 23 115 107 150 118 32 10 63 -17 136 -120
l68 -96 12 33 c41 113 -13 250 -125 316 -41 24 -58 27 -136 28 l-89 1 -294
309 c-162 170 -304 317 -316 326 -12 10 -37 18 -56 18 -27 0 -43 -9 -82 -49z
m135 -57 c34 -34 8 -104 -39 -104 -29 0 -53 20 -60 52 -13 51 61 90 99 52z"/>
<path d="M1195 1723 c-15 -115 -12 -112 -95 -139 -41 -14 -77 -27 -79 -29 -6
-7 152 -174 161 -169 4 3 35 9 68 15 125 20 262 -24 359 -115 87 -82 131 -170
146 -288 8 -69 -15 -182 -52 -250 -87 -161 -278 -258 -454 -231 -194 30 -347
181 -379 373 -11 61 -4 154 15 201 4 12 -17 34 -81 83 -99 76 -94 77 -125 -24
-18 -60 -23 -63 -122 -75 l-47 -6 0 -109 c0 -124 -11 -110 99 -127 l53 -8 23
-72 c12 -40 35 -93 49 -118 l27 -45 -51 -62 -50 -63 79 -79 78 -78 64 49 64
49 50 -28 c28 -15 80 -37 117 -49 65 -20 67 -21 72 -60 3 -21 9 -57 12 -79 l6
-40 108 0 109 0 5 33 c3 17 8 53 11 79 l6 47 57 16 c31 9 85 31 119 49 l62 33
62 -50 61 -50 79 79 78 79 -49 63 -50 64 26 44 c15 25 37 77 49 117 l23 72 49
8 c26 4 62 10 78 12 l30 5 0 110 0 109 -55 6 c-97 11 -99 13 -126 94 -14 41
-36 93 -49 115 l-24 42 44 57 c25 31 45 60 45 65 0 10 -143 152 -153 152 -5 0
-33 -20 -64 -45 l-55 -45 -43 24 c-23 14 -75 36 -116 50 -81 27 -79 24 -94
139 l-6 47 -109 0 -109 0 -6 -47z"/>
</g>
</svg>
